<?xml version="1.0" standalone="no"?>
<!DOCTYPE svg PUBLIC "-//W3C//DTD SVG 20010904//EN"
 "http://www.w3.org/TR/2001/REC-SVG-20010904/DTD/svg10.dtd">
<svg version="1.0" xmlns="http://www.w3.org/2000/svg"
 width="40.000000pt" height="40.000000pt" viewBox="0 0 40.000000 40.000000"
 preserveAspectRatio="xMidYMid meet">

<g transform="translate(0.000000,40.000000) scale(0.100000,-0.100000)"
fill="#000000" stroke="none">
<path d="M30 200 l0 -200 170 0 170 0 0 200 0 200 -170 0 -170 0 0 -200z m52
173 c24 -22 26 -128 1 -155 -35 -38 -43 -24 -43 77 0 100 6 111 42 78z m108 7
c0 -5 20 -10 45 -10 25 0 45 5 45 10 0 6 18 10 40 10 l40 0 0 -105 c0 -87 -3
-105 -15 -105 -10 0 -15 -11 -15 -35 0 -24 5 -35 15 -35 11 0 15 -12 15 -50 0
-38 -4 -50 -15 -50 -11 0 -15 11 -15 39 0 46 -26 71 -72 71 -27 0 -28 -2 -28
-55 l0 -55 -95 0 -95 0 0 90 c0 77 2 90 17 90 38 0 53 30 53 105 0 42 -5 76
-12 83 -9 9 0 12 40 12 29 0 52 -4 52 -10z m68 3 c-10 -2 -28 -2 -40 0 -13 2
-5 4 17 4 22 1 32 -1 23 -4z m102 -223 c0 -5 -4 -10 -10 -10 -5 0 -10 5 -10
10 0 6 5 10 10 10 6 0 10 -4 10 -10z m0 -30 c0 -5 -4 -10 -10 -10 -5 0 -10 5
-10 10 0 6 5 10 10 10 6 0 10 -4 10 -10z m-57 -34 c11 -8 17 -27 17 -50 0 -35
-1 -36 -40 -36 l-40 0 0 50 c0 45 2 50 23 50 12 0 30 -7 40 -14z"/>
<path d="M73 300 c0 -36 2 -50 4 -32 2 17 2 47 0 65 -2 17 -4 3 -4 -33z"/>
<path d="M120 291 l0 -91 30 0 31 0 -3 88 c-3 87 -3 87 -30 90 l-28 3 0 -90z
m17 -28 c-2 -16 -4 -5 -4 22 0 28 2 40 4 28 2 -13 2 -35 0 -50z m33 22 c0 -25
-4 -45 -10 -45 -5 0 -10 20 -10 45 0 25 5 45 10 45 6 0 10 -20 10 -45z m-5
-65 c3 -5 1 -10 -4 -10 -6 0 -11 5 -11 10 0 6 2 10 4 10 3 0 8 -4 11 -10z"/>
<path d="M290 291 l0 -91 30 0 31 0 -3 88 c-3 87 -3 87 -30 90 l-28 3 0 -90z
m17 -28 c-2 -16 -4 -5 -4 22 0 28 2 40 4 28 2 -13 2 -35 0 -50z m33 22 c0 -25
-4 -45 -10 -45 -5 0 -10 20 -10 45 0 25 5 45 10 45 6 0 10 -20 10 -45z"/>
<path d="M190 295 l0 -45 45 0 45 0 0 45 0 45 -45 0 -45 0 0 -45z m75 0 c0
-27 -4 -30 -32 -33 -32 -3 -33 -2 -33 33 0 35 1 36 33 33 28 -3 32 -6 32 -33z"/>
<path d="M224 288 l-19 -23 23 19 c21 18 27 26 19 26 -2 0 -12 -10 -23 -22z"/>
<path d="M208 233 c12 -2 32 -2 45 0 12 2 2 4 -23 4 -25 0 -35 -2 -22 -4z"/>
<path d="M223 203 c9 -2 23 -2 30 0 6 3 -1 5 -18 5 -16 0 -22 -2 -12 -5z"/>
<path d="M63 125 c0 -22 2 -30 4 -17 2 12 2 30 0 40 -3 9 -5 -1 -4 -23z"/>
<path d="M90 145 c0 -12 13 -15 60 -15 47 0 60 3 60 15 0 12 -13 15 -60 15
-47 0 -60 -3 -60 -15z m68 -2 c-10 -2 -28 -2 -40 0 -13 2 -5 4 17 4 22 1 32
-1 23 -4z"/>
<path d="M118 103 c17 -2 47 -2 65 0 17 2 3 4 -33 4 -36 0 -50 -2 -32 -4z"/>
<path d="M90 65 c0 -12 13 -15 60 -15 47 0 60 3 60 15 0 12 -13 15 -60 15 -47
0 -60 -3 -60 -15z m68 -2 c-10 -2 -28 -2 -40 0 -13 2 -5 4 17 4 22 1 32 -1 23
-4z"/>
<path d="M118 33 c17 -2 47 -2 65 0 17 2 3 4 -33 4 -36 0 -50 -2 -32 -4z"/>
<path d="M268 63 c6 -2 18 -2 25 0 6 3 1 5 -13 5 -14 0 -19 -2 -12 -5z"/>
<path d="M268 33 c6 -2 18 -2 25 0 6 3 1 5 -13 5 -14 0 -19 -2 -12 -5z"/>
</g>
</svg>
